<svg xmlns="http://www.w3.org/2000/svg" viewBox="0 0 125.17 125.39"><title>Asset 8</title><g id="Layer_2" data-name="Layer 2"><g id="svg5"><path id="path1684" d="M13.87,124.94A18,18,0,0,1,1.56,114.38C.09,111.14,0,109.59,0,75.84L0,40.69,6.55,25.61c7.81-18,9.76-21.13,14.8-23.7L25.08,0h75.09l3.72,1.92C108.82,4.45,110.51,7,118.31,24l6.56,14.25.22,36c.19,32.08.08,36.36-1,39.27a20,20,0,0,1-8.86,10.09c-3.07,1.63-3.23,1.64-51.08,1.76C37.72,125.44,15.11,125.25,13.87,124.94Zm98.65-9.45c4.47-2.31,4.48-2.37,4.48-38.2V44.63H8.25V77.29c0,35.65,0,35.83,4.32,38.16,3.12,1.69,96.68,1.73,99.95,0Zm-54-93.36V8.63h-16c-20.62,0-19.15-.85-26.12,15C13.55,30,11.25,35.29,11.25,35.41s10.63.22,23.62.22H58.5ZM114,35.41c0-.12-2.3-5.44-5.12-11.81-7-15.82-5.5-15-26.12-15h-16v27H90.37c13,0,23.63-.09,23.63-.21Z"/></g></g></svg>