<svg xmlns="http://www.w3.org/2000/svg" viewBox="0 0 142.84 143.21"><title>Asset 6</title><g id="Layer_2" data-name="Layer 2"><g id="svg5"><path id="path1570" d="M65.09,143.05c-12-1.68-20.34-4.31-28.4-8.9A72,72,0,0,1,4.82,97.71a73.66,73.66,0,0,1,0-52.43C14,22.21,33.48,6.07,58.34.9,64.13-.3,78.8-.3,84.59.9c29.09,6.05,51.08,27.63,57,56,1.65,7.86,1.65,21.38,0,29.25a72.07,72.07,0,0,1-55.25,55.52c-5.38,1.13-17.5,1.94-21.26,1.41Zm19-9.74c22.3-4.56,39.86-20.21,47.55-42.36,2.39-6.89,2.46-7.41,2.46-19.46S134,58.93,131.61,52C122.37,25.45,99,8.49,71.47,8.49S20.56,25.45,11.33,52c-2.4,6.89-2.46,7.41-2.46,19.45S8.93,84.06,11.33,91c6.46,18.61,19.33,32.17,37.47,39.46C58.72,134.4,73,135.57,84.06,133.31ZM66.38,115.39A17.67,17.67,0,0,1,56,90.36a18.48,18.48,0,0,1,17.56-9.71l2.49.22L87.51,59.71C99,38.38,100.84,35.49,102.74,35.49s4.87,3.63,4.4,5.12c-.24.73-5.65,11.06-12,23L83.53,85.17l1.79,2.35c2.6,3.41,3.53,6.3,3.54,11a17.33,17.33,0,0,1-12.6,16.87c-4.24,1.28-5.68,1.27-9.88,0Zm11.54-10.45c2.24-2.24,2.55-3,2.55-6.45s-.31-4.2-2.55-6.45-3-2.55-6.45-2.55S67.26,89.8,65,92s-2.55,3-2.55,6.45c0,5.66,3.34,9,9,9,3.43,0,4.2-.3,6.45-2.55ZM23.36,77.1c-4.5-2.44-4-9.58.77-11.57,7.22-3,12.24,8,5.29,11.61C26.81,78.49,25.9,78.48,23.36,77.1Zm90,0c-4.5-2.44-4-9.58.77-11.57,7.22-3,12.24,8,5.29,11.61-2.61,1.35-3.52,1.34-6.06,0ZM36.86,45.6c-4.5-2.44-4-9.58.77-11.57,7.22-3,12.24,8,5.29,11.61C40.31,47,39.4,47,36.86,45.6Zm31.5-13.5c-4.5-2.44-4-9.58.77-11.57,7.22-3,12.24,8,5.29,11.61-2.61,1.35-3.52,1.34-6.06,0Z"/></g></g></svg>