<svg xmlns="http://www.w3.org/2000/svg" viewBox="0 0 125.54 143.85"><title>Asset 5</title><g id="Layer_2" data-name="Layer 2"><g id="svg5"><path id="path1912" d="M12.54,142.8a17.4,17.4,0,0,1-10.49-8.88L0,130V17.38l2.62-5.13c1.9-3.71,3.58-5.81,6.07-7.6C15.35-.11,16-.16,68.35.07L115.5.28l3.1,1.78a14.72,14.72,0,0,1,4.87,4.87l1.78,3.1.23,45c.13,24.75,0,46.76-.23,48.9a13.88,13.88,0,0,1-6.19,10.35l-2.38,1.5,0,9.56,0,9.57h2.06c3.47,0,5.22.78,6.08,2.68,1,2.3-.17,5.25-2.42,5.86-.88.23-25.22.41-54.1.39-41.61,0-53.17-.25-55.71-1Zm95.08-16.89v-9H13.72l-2.55,2.55c-2.24,2.24-2.54,3-2.54,6.45s.3,4.2,2.54,6.45l2.55,2.55h93.91ZM13.87,108.59a42.21,42.21,0,0,1,7.69-.67h5.06v-99h-3.7c-4.54,0-7.27,1-10.05,3.61C8.45,16.7,8.63,14.61,8.63,64.45c0,43.39.07,45.84,1.31,45.33a34.41,34.41,0,0,1,3.93-1.19Zm101.58-1.86c1-1,1.17-6.47,1.17-48.32s-.13-47.28-1.17-48.32S109.69,8.91,75,8.91H35.62v99H75C109.69,107.91,114.4,107.77,115.45,106.73Z"/></g></g></svg>