<svg id="svg5" xmlns="http://www.w3.org/2000/svg" viewBox="0 0 126.05 125.94"><title>full-screen</title><path id="path904" d="M241.18,473.5a4.21,4.21,0,0,1-2.06-2.2c-1.16-2.55-1.18-37,0-39.58a4,4,0,0,1,5.06-2.21c2.55.67,3.1,3.57,3.1,16.59v12.52l23.81-23.81L294.89,411l-23.81-23.81-23.81-23.81V375.9c0,13-.55,15.92-3.1,16.59a4,4,0,0,1-5.06-2.21c-1.16-2.54-1.16-37,0-39.56a4.49,4.49,0,0,1,2.43-2.27c2.09-.56,36.37-.56,38.45,0,3.66,1,3.66,7.12,0,8.1-.88.24-7.17.43-14,.44H253.64l23.81,23.81,23.82,23.81,23.81-23.81L348.89,357H336.51c-6.8,0-13.09-.2-14-.44-3.65-1-3.65-7.12,0-8.1,2.08-.56,36.37-.56,38.45,0a4.49,4.49,0,0,1,2.43,2.27c1.16,2.54,1.16,37,0,39.56a4,4,0,0,1-7.31,0c-.52-1.13-.84-6.72-.84-14.38V363.38l-23.82,23.81L307.64,411l23.81,23.81,23.82,23.81V446.1c0-7.66.32-13.25.84-14.38a4,4,0,0,1,7.31,0c1.16,2.54,1.16,37,0,39.56a4.49,4.49,0,0,1-2.43,2.27c-2.08.56-36.37.56-38.45,0-3.65-1-3.65-7.12,0-8.1.88-.24,7.17-.43,14-.44h12.38l-23.81-23.81-23.81-23.81-23.82,23.81L253.64,465H266c6.8,0,13.09.2,14,.44,3.66,1,3.66,7.12,0,8.1-1.82.49-37,.45-38.81-.05Z" transform="translate(-238.24 -348.03)"/></svg>