<svg xmlns="http://www.w3.org/2000/svg" viewBox="0 0 143.47 143.82"><title>Asset 2</title><g id="Layer_2" data-name="Layer 2"><g id="svg5"><path id="path1988" d="M3.63,142.61a7.2,7.2,0,0,1-2.81-3.46c-1.07-3.06-1.1-28.32,0-31.17.44-1.16,10.9-12.24,23.26-24.61L46.49,60.86l-.7-5.62c-1.86-14.79,4.09-31.39,14.87-41.47,19.63-18.36,48-18.36,67.65,0C139.08,23.83,145,40.18,143.14,54.89c-1.86,15-10,27.8-23.15,36.3-7.81,5-20.61,8.22-29.24,7.24L86.56,98l-5.44,4.89-5.43,4.9H63v5.51c0,10.45-2,12.49-12,12.49H45v5.51c0,6.85-1,10-3.79,11.39-3.07,1.58-34.64,1.55-37.57,0ZM36,125.75v-9H54v-18H73.91l4.78-4.83,4.78-4.83L91,89.5c13.71.74,24.25-3.26,33-12.5a38.28,38.28,0,0,0,11-27.75,38.29,38.29,0,0,0-11-27.76C102.19-1.63,63,8.37,55.14,39.09c-1.36,5.27-1.51,16.33-.29,21.15l.86,3.41L32.35,87,9,110.38v24.37H36Zm64.39-79.89c-4.5-2.45-4-9.59.77-11.57,7.22-3,12.24,8,5.3,11.61-2.61,1.34-3.53,1.34-6.07,0Z"/></g></g></svg>