<svg xmlns="http://www.w3.org/2000/svg" viewBox="0 0 129.6 136.63"><title>Asset 12</title><g id="Layer_2" data-name="Layer 2"><g id="svg5"><path id="path1950" d="M56.44,136.2a65.23,65.23,0,0,1-31.89-13.82C16.74,116.2,11.78,110,7.08,100.59A63.23,63.23,0,0,1,2.22,54.84c4.07-15.72,16.68-32,30.58-39.42,4.13-2.21,4.45-2.27,6.19-1.13a3.76,3.76,0,0,1,1.84,3.41c0,1.94-.77,2.72-6.28,6.35C21.11,32.9,11.89,46.58,9.28,61.55c-1.41,8.1-.57,20.52,1.89,27.79,6,17.66,19.52,30.71,37.94,36.49,4.71,1.48,7.19,1.76,15.72,1.76,11.07,0,16.9-1.29,25.48-5.62a61.65,61.65,0,0,0,24-22.88c7.69-13.42,9-32.95,3.1-48a58.73,58.73,0,0,0-22.31-27c-5.51-3.63-6.28-4.41-6.28-6.35a3.76,3.76,0,0,1,1.84-3.41c1.75-1.14,2.06-1.08,6.19,1.13,6.6,3.53,14.82,10.74,19.58,17.17a65.28,65.28,0,0,1,11,56c-1.59,6.3-7.9,18.61-12.42,24.22-8.06,10-22.09,18.9-34.55,21.89-7.44,1.78-18.09,2.45-24,1.5Zm6.81-56A4.18,4.18,0,0,1,61.19,78c-1.2-2.62-1.21-73,0-75.58a4,4,0,0,1,7.32,0c1.2,2.64,1.18,73,0,75.61C68,79.1,67.33,80,67,80a7.38,7.38,0,0,0-1.57.29,4.83,4.83,0,0,1-2.2,0Z"/></g></g></svg>