<svg xmlns="http://www.w3.org/2000/svg" viewBox="0 0 125.11 143.82"><title>Asset 14</title><g id="Layer_2" data-name="Layer 2"><g id="svg5"><path id="path1608" d="M57.22,143a17.32,17.32,0,0,1-9.34-7.65q-3.66-6.24.66-8.59c2-1.1,2.18-1.06,3.75.94,5,6.39,5.38,6.68,8.85,7.07,4.39.5,7.56-1.1,10.07-5.09,2.33-3.68,3.55-4.22,6-2.63s2.42,4.53-.32,8.85C72.89,142.17,63.79,145.46,57.22,143Zm-49-26.79c-5.49-1.64-9.31-8.55-8-14.43C1,98.73,1.46,98,5.74,93.5a47.29,47.29,0,0,0,9.59-16.25c1.29-3.8,1.79-7.64,2.28-17.46.7-14.21,1.81-19.54,5.58-26.71A43,43,0,0,1,37.66,17c5.11-3.4,14.88-7.22,18.46-7.22,1.79,0,1.93-.25,1.93-3.38C58.05,2.83,59.9,0,62.21,0s4.84,3.5,4.84,6.72c0,2.76.18,3,1.93,3,3.58,0,13.35,3.82,18.46,7.22a43.08,43.08,0,0,1,14.48,16.11c3.76,7.17,4.88,12.5,5.58,26.71.48,9.82,1,13.66,2.28,17.46a47.27,47.27,0,0,0,9.58,16.25c4.28,4.46,4.79,5.23,5.49,8.29,1.35,5.94-2.62,12.9-8.27,14.46-3.32.93-105.24.89-108.33,0Zm107.4-9.12c1.76-1.76.88-4.28-3.1-8.84a68.52,68.52,0,0,1-7.14-10.47c-4.53-8.52-6-15.31-6.78-30.56-.61-12.61-.68-13-3.26-18.45A36,36,0,0,0,62.21,18c-10.28,0-18,3.2-25.21,10.44-8.15,8.14-11.16,16.67-11.19,31.69,0,16.12-4.21,27.54-14.51,39.57-3.89,4.53-4,5-2.26,6.92,1.18,1.3,3.83,1.37,53.48,1.37,39.62,0,52.45-.22,53.13-.9Z"/></g></g></svg>