<svg xmlns="http://www.w3.org/2000/svg" viewBox="0 0 107.25 143.97"><title>Asset 9</title><g id="Layer_2" data-name="Layer 2"><g id="svg5"><path id="path1760" d="M12.54,142.82a17.4,17.4,0,0,1-10.49-8.88l-2-3.89V13.8L2.08,9.86a17.63,17.63,0,0,1,12-9.2C16.7.09,25.81-.11,41.25.05,63.42.29,64.64.38,67.5,1.93c1.65.89,10.8,9.5,20.34,19.12,13.15,13.28,17.58,18.22,18.37,20.5s1,11.28,1,45.75v42.75l-2,3.89a17.18,17.18,0,0,1-10.79,8.92c-5,1.51-77,1.47-81.87,0Zm83.54-10.44,2.54-2.55V54l-17.43-.24c-16.75-.23-17.56-.31-20.54-2a14.85,14.85,0,0,1-4.87-4.88c-1.71-3-1.79-3.8-2-20.54L53.5,8.93H13.72l-2.55,2.55L8.62,14v115.8l2.55,2.55,2.55,2.55h79.8ZM29.54,116.43c-3.34-.89-3.06-7.14.36-8.06,2.09-.55,45.36-.55,47.45,0,3.65,1,3.65,7.13,0,8.11-1.83.49-46,.44-47.81,0Zm0-18c-3.34-.89-3.06-7.14.36-8.06,2.09-.55,45.36-.55,47.45,0,3.65,1,3.65,7.13,0,8.11-1.83.49-46,.44-47.81,0Zm0-18c-3.34-.89-3.06-7.14.36-8.06,2.09-.55,45.36-.55,47.45,0,3.65,1,3.65,7.13,0,8.11-1.83.49-46,.44-47.81,0Zm69.08-36c0-1-34.06-34.72-35-34.72-.75,0-1,3.59-1,16.44,0,14,.18,16.63,1.18,17.63s3.71,1.18,18,1.18C91.06,44.93,98.62,44.69,98.62,44.4Z"/></g></g></svg>