<svg xmlns="http://www.w3.org/2000/svg" viewBox="0 0 124.91 143.53"><title>Asset 11</title><g id="Layer_2" data-name="Layer 2"><g id="svg5"><path id="path1874" d="M6.57,143.14C1.15,141.36-.77,137,.27,128.72c2.57-20.5,16-36,36-41.7,4.2-1.19,7.75-1.38,26.23-1.38,23.54,0,26.34.39,35.62,5,15.55,7.71,26.09,23.74,26.8,40.75.22,5.23-.91,8.39-3.76,10.5-2,1.47-3.31,1.51-57.53,1.62C33.06,143.58,7.41,143.41,6.57,143.14Zm109.89-11.59c0-8.58-4.29-18.26-11.25-25.36A37.81,37.81,0,0,0,86.29,95.4c-6.67-1.57-41-1.57-47.65,0a37.88,37.88,0,0,0-18.93,10.79c-7,7.1-11.25,16.78-11.25,25.36v3.22h108ZM54.52,70.65C26.62,64.58,17.34,28.36,38.73,9A35.69,35.69,0,0,1,67.9.44c17.8,2.9,30,17.26,30,35.33,0,17.28-11.25,31.41-27.82,34.92a31.56,31.56,0,0,1-15.54,0ZM74.73,59.88A28,28,0,0,0,87.37,47.14c1.46-3,1.72-4.67,1.72-11.37s-.26-8.4-1.72-11.37A27.85,27.85,0,0,0,74.63,11.61C70,9.34,69,9.14,62.46,9.14s-7.56.2-12.16,2.47C41.14,16.12,36.15,23.7,35.61,33.93c-.4,7.63,1,12.83,4.92,18,5.73,7.55,13.27,11,23.18,10.63,5.09-.19,6.93-.63,11-2.64Z"/></g></g></svg>