<svg xmlns="http://www.w3.org/2000/svg" viewBox="0 0 134.25 144.03"><title>Asset 13</title><g id="Layer_2" data-name="Layer 2"><g id="svg5"><path id="path1798" d="M55.37,142.93C52,141.46,51,139.48,48.76,130.1c-1.94-8.25-2-8.32-4.78-9.56A51.83,51.83,0,0,1,37.7,117l-3.46-2.29-9,2.77-9,2.77-2.9-1.42c-2.42-1.19-3.77-2.91-8.16-10.43C.69,100.59,0,98.92,0,95.74c0-3.65,0-3.7,6.75-10l6.75-6.31.1-7.27.1-7.28L6.85,58.45C0,52,0,52,0,48.32c0-3.18.69-4.85,5.26-12.67,4.39-7.51,5.74-9.23,8.16-10.42l2.9-1.42,9,2.77,9,2.77,3.46-2.29A51.83,51.83,0,0,1,44,23.52c2.81-1.24,2.84-1.31,4.78-9.56C51,4.47,52,2.58,55.53,1.09s19.7-1.46,23.06,0c3.9,1.65,4.91,3.48,7,12.52,1.06,4.71,2,8.61,2.07,8.67s1.65.87,3.5,1.8,4.59,2.51,6.1,3.51L100,29.37l9-2.78,9-2.78,2.9,1.42c2.42,1.19,3.77,2.91,8.16,10.42,4.57,7.82,5.26,9.49,5.26,12.67,0,3.66,0,3.7-6.85,10.13l-6.85,6.45.1,7.28.1,7.27,6.75,6.31c6.72,6.28,6.75,6.33,6.75,10,0,3.18-.69,4.85-5.26,12.66-4.39,7.52-5.74,9.24-8.16,10.43l-2.9,1.42-9-2.78-9-2.78-2.74,1.82c-1.51,1-4.25,2.58-6.1,3.51s-3.42,1.74-3.5,1.8-1,4-2.07,8.67c-2,9-3.05,10.87-7,12.52-3.31,1.4-20,1.35-23.22-.08Zm20.75-8.28c0-.59,3-13.87,3.79-17,.64-2.41,1.24-2.93,5-4.45a37,37,0,0,0,10.74-6.06l2.68-2.06,9.58,3a95,95,0,0,0,9.75,2.77c.1-.14,1.47-2.44,3-5.12s3.48-5.92,4.24-7.2l1.38-2.33-7.22-6.56-7.23-6.57V60.94l7.23-6.57,7.22-6.56L125,45.48c-.76-1.28-2.67-4.52-4.24-7.2s-3-5-3.07-5.14-4.44,1.15-9.62,2.87l-9.43,3.14-3.14-2.5a66.16,66.16,0,0,0-9.15-5.5c-6.76-3.37-6-1.94-9.09-16.31L76,9H58.34l-2.1,9.82c-1.5,7-2.45,9.93-3.3,10.22a55.26,55.26,0,0,0-13.39,7l-4,3L26.17,36c-5.16-1.72-9.48-3-9.59-2.86s-1.49,2.46-3.07,5.14S10,44.2,9.27,45.48L7.89,47.81l7.22,6.56,7.23,6.57V83.12l-7.23,6.57L7.89,96.25l1.38,2.33c.76,1.28,2.67,4.52,4.24,7.2s3,5,3,5.12a91.77,91.77,0,0,0,9.73-2.77l9.55-3,3.32,2.54a50.33,50.33,0,0,0,12.28,6.6l2.69,1.09,2.1,9.84L58.34,135h8.89c4.89,0,8.89-.17,8.89-.38ZM61.68,96A24.94,24.94,0,0,1,43.4,67C47.09,49.08,67.84,41.3,82,52.53s11.63,34-4.85,41.72C72.86,96.26,65.86,97.06,61.68,96ZM75.35,85.45a18.33,18.33,0,0,0,5.08-4.68c1.83-2.63,2.07-3.67,2.07-8.8s-.22-6.12-2.28-9.06a15.83,15.83,0,0,0-26.19,0C52,65.85,51.75,66.71,51.75,72c0,5.11.25,6.17,2,8.76a16.68,16.68,0,0,0,8.71,6.36c3.15,1,9.56.21,12.84-1.64Z"/></g></g></svg>