<svg xmlns="http://www.w3.org/2000/svg" viewBox="0 0 143.52 116.77"><title>Asset 10</title><g id="Layer_2" data-name="Layer 2"><g id="svg5"><path id="path1836" d="M14.27,115.88C11.89,114.67,9,110.39,9,108.05c0-3.79,3.54-8.21,7.12-8.88,3.31-.63,7.51,1.29,9,4.07,2.47,4.78.71,10.68-3.73,12.53-3.12,1.31-4.67,1.33-7.08.11Zm32.23-5a5.25,5.25,0,0,1-1.5-3,5.19,5.19,0,0,1,1.5-3c1.47-1.47,2.49-1.5,47.06-1.49,25.06,0,46.28.2,47.16.44,3.66,1,3.66,7.12,0,8.1-.88.24-22.1.43-47.16.44-44.57,0-45.59,0-47.06-1.49ZM8,72c-4.41-4.47-8-8.54-8-9,0-1.09,3.38-4.58,4.44-4.58.42,0,3.55,2.51,7,5.57s6.43,5.41,6.74,5.22,5-5.58,10.41-12,10.3-11.82,10.85-12c1.35-.52,3.9.93,4.9,2.8S45,50.45,31.34,66.78C21.82,78.15,19.89,80.09,18.12,80.09S14.39,78.42,8,72ZM55.5,65.84a5.25,5.25,0,0,1-1.5-3,5.19,5.19,0,0,1,1.5-3C57,58.38,58,58.34,98.06,58.35c22.59,0,41.78.2,42.66.44A4.38,4.38,0,0,1,143.14,61c1.05,2.31-.16,5.26-2.42,5.86-.88.24-20.07.43-42.66.44-40.07,0-41.1,0-42.56-1.49ZM8,27c-4.41-4.47-8-8.54-8-9,0-1.09,3.38-4.58,4.44-4.58.42,0,3.55,2.51,7,5.57s6.43,5.41,6.74,5.22,5-5.58,10.41-12S38.84.32,39.39.11c1.35-.52,3.9.93,4.9,2.8S45,5.45,31.34,21.78C21.82,33.15,19.89,35.09,18.12,35.09S14.39,33.42,8,27ZM55.5,20.84a5.25,5.25,0,0,1-1.5-3,5.19,5.19,0,0,1,1.5-3C57,13.38,58,13.34,98.06,13.35c22.59,0,41.78.2,42.66.44,2.26.6,3.47,3.55,2.42,5.86a4.38,4.38,0,0,1-2.42,2.24c-.88.24-20.07.43-42.66.44-40.07,0-41.1,0-42.56-1.49Z"/></g></g></svg>