<svg xmlns="http://www.w3.org/2000/svg" viewBox="0 0 142.84 143.21"><title>Asset 1</title><g id="Layer_2" data-name="Layer 2"><g id="svg5"><path id="path2026" d="M65.09,143.05c-12-1.68-20.34-4.31-28.4-8.9A72,72,0,0,1,4.82,97.71a73.66,73.66,0,0,1,0-52.43C14,22.21,33.48,6.07,58.34.9,64.13-.3,78.8-.3,84.59.9c29.09,6.05,51.08,27.63,57,56,1.65,7.86,1.65,21.38,0,29.25a72.07,72.07,0,0,1-55.25,55.52C81,142.77,68.85,143.58,65.09,143.05Zm23.5-10.75a67,67,0,0,0,16.88-7.75c1.88-1.33,2.07-1.82,1.64-4.22-1.43-7.86-7.76-16-15.23-19.45-4.23-2-4.49-2-20.41-2s-16.18,0-20.42,2c-7.47,3.5-13.8,11.59-15.22,19.45-.44,2.4-.25,2.89,1.63,4.22,5.55,3.91,15.41,7.76,24.26,9.47,4.73.91,21.47-.16,26.87-1.72ZM29.75,111.91A35.49,35.49,0,0,1,55.61,90.57c6.57-1.39,25.15-1.39,31.72,0a35.49,35.49,0,0,1,25.85,21.34c.93,2.3,2,4.28,2.36,4.4.87.29,6-5.81,9.53-11.36,6.51-10.17,9.39-20.35,9.38-33.08,0-17.43-5.38-31-17.15-43.37C91.78,1.68,51.15,1.68,25.64,28.5,14.1,40.63,8.51,54.47,8.48,71a63.28,63.28,0,0,0,15.22,42c1.67,2,3.33,3.5,3.69,3.38S28.82,114.21,29.75,111.91ZM65.54,79.34a20.29,20.29,0,0,1-13.45-11c-2.17-4.24-2.5-5.64-2.5-10.4s.33-6.16,2.5-10.39c3.11-6.08,7.37-9.36,14.42-11.1,4.58-1.13,5.33-1.13,9.92,0,7,1.74,11.31,5,14.42,11.1,2.16,4.22,2.5,5.64,2.5,10.34S93,64.14,91,68.27A21.65,21.65,0,0,1,65.54,79.34Zm10.94-8.65a16.75,16.75,0,0,0,7.43-6.85A15.68,15.68,0,0,0,85,58a12,12,0,0,0-4.25-9.89,13.47,13.47,0,0,0-18.51,0A12,12,0,0,0,58,58,15.48,15.48,0,0,0,59,63.84a17.37,17.37,0,0,0,7.19,6.81,18.09,18.09,0,0,0,10.26,0Z"/></g></g></svg>