<svg id="svg5" xmlns="http://www.w3.org/2000/svg" viewBox="0 0 142.84 143.21"><title>user-profile</title><path id="path2026" d="M286.37,471.83c-11.95-1.68-20.34-4.31-28.4-8.9a72,72,0,0,1-31.87-36.44,73.77,73.77,0,0,1,0-52.43c9.19-23.07,28.66-39.21,53.52-44.38,5.79-1.2,20.46-1.2,26.25,0,29.09,6.05,51.08,27.63,57,56,1.65,7.86,1.65,21.38,0,29.25a72.07,72.07,0,0,1-55.25,55.52C302.25,471.55,290.13,472.36,286.37,471.83Zm23.5-10.75a66.69,66.69,0,0,0,16.88-7.75c1.88-1.33,2.07-1.82,1.64-4.22-1.43-7.86-7.76-15.95-15.23-19.45-4.23-2-4.49-2-20.41-2s-16.18,0-20.42,2c-7.47,3.5-13.8,11.59-15.22,19.45-.44,2.4-.25,2.89,1.64,4.22,5.54,3.92,15.4,7.77,24.25,9.47,4.73.91,21.47-.16,26.87-1.72ZM251,440.69a35.44,35.44,0,0,1,25.85-21.33c6.57-1.4,25.15-1.4,31.72,0a35.45,35.45,0,0,1,25.85,21.33c.93,2.3,2,4.28,2.36,4.4.87.29,6-5.81,9.53-11.36,6.51-10.17,9.39-20.34,9.38-33.08,0-17.43-5.38-31-17.15-43.36-25.52-26.83-66.15-26.83-91.66,0-11.54,12.12-17.13,26-17.16,42.45a63.31,63.31,0,0,0,15.22,42c1.67,2,3.33,3.49,3.7,3.37S250.1,443,251,440.69Zm35.78-32.57a20.26,20.26,0,0,1-13.45-10.95c-2.17-4.23-2.5-5.64-2.5-10.4s.33-6.16,2.5-10.39c3.11-6.08,7.37-9.36,14.42-11.1,4.59-1.13,5.33-1.13,9.92,0,7,1.74,11.31,5,14.42,11.1,2.16,4.22,2.5,5.64,2.5,10.34s-.37,6.2-2.4,10.33a21.65,21.65,0,0,1-25.41,11.07Zm10.94-8.64a16.83,16.83,0,0,0,7.43-6.86,15.68,15.68,0,0,0,1.06-5.85,12,12,0,0,0-4.25-9.89,13.47,13.47,0,0,0-18.51,0,12,12,0,0,0-4.24,9.89,15.48,15.48,0,0,0,1.06,5.85,17.37,17.37,0,0,0,7.19,6.81,18.09,18.09,0,0,0,10.26.05Z" transform="translate(-221.28 -328.78)"/></svg>