<svg xmlns="http://www.w3.org/2000/svg" viewBox="0 0 179.51 143.84"><title>Asset 7</title><g id="Layer_2" data-name="Layer 2"><g id="svg5"><path id="path1722" d="M39.77,142.41c-3.21-2-4.13-5-3.22-10.59,2.65-16.46,14.66-28.74,31.2-31.9,7.72-1.48,36.26-1.48,44,0,13.12,2.5,24.66,11.81,29,23.37,2.39,6.38,3.18,12.76,2,15.72-2.09,5-.47,4.83-53.06,4.83C44.25,143.83,42,143.77,39.77,142.41Zm94.66-10.73c-1.66-10.33-9.64-19-20.76-22.42-4-1.24-7-1.42-23.93-1.42s-19.95.18-23.93,1.42a31.66,31.66,0,0,0-15.11,10c-3,3.8-6,10.64-6,13.77v1.85h90.19ZM83.77,89A28.08,28.08,0,0,1,61.39,62.83C60.48,47.11,70.11,34.64,85.19,32c10.8-1.9,23.37,3.81,28.8,13.1,10.4,17.77.71,40.27-18.94,44A24,24,0,0,1,83.77,89Zm12.87-9.35c14.35-4.88,18.11-24.43,6.6-34.28a20.19,20.19,0,0,0-15.31-4.87c-10.92.88-18.41,9-18.41,20.07,0,14.35,13.38,23.77,27.12,19.08Zm-94,5.17c-3.12-.82-3.52-8-.91-16.16C3.15,64.18,8.4,58.3,13,56c3.39-1.68,4.33-1.77,18.2-1.77,13.39,0,14.85.13,17.25,1.53,3.24,1.9,3.93,5.26,1.53,7.43-1.34,1.22-1.91,1.29-4.43.53-1.67-.5-8-.87-14.81-.87-13.5,0-15.39.54-19.32,5.45C9.62,70.6,9.16,72,8.92,75.79c-.29,4.81-1.41,8.8-2.46,8.8a7.38,7.38,0,0,0-1.6.29,5.11,5.11,0,0,1-2.23,0Zm171,0c-1.7-.45-2.74-3.5-3.08-9-.23-3.82-.69-5.18-2.5-7.42-4.05-5-5.89-5.53-19.34-5.53-6.86,0-13.15.37-14.82.87-2.51.75-3.1.69-4.4-.49a4.64,4.64,0,0,1-1.5-2.8c0-5.28,5.39-6.83,22.38-6.43,14.61.34,17.35,1.23,22.95,7.46,3.5,3.89,5.23,8.1,6.07,14.74.49,3.86-.56,8.4-1.93,8.4a7.38,7.38,0,0,0-1.6.29,5.11,5.11,0,0,1-2.23,0ZM29.81,43.69A20.34,20.34,0,0,1,16.36,32.74c-2.17-4.24-2.5-5.64-2.5-10.4s.33-6.16,2.5-10.4C19.47,5.87,23.74,2.59,30.78.85c4.59-1.13,5.33-1.13,9.92,0,7,1.74,11.31,5,14.42,11.09,2.16,4.23,2.5,5.65,2.5,10.35s-.37,6.2-2.4,10.32A21.64,21.64,0,0,1,29.81,43.69ZM40.75,35a16.75,16.75,0,0,0,7.43-6.85,15.72,15.72,0,0,0,1.06-5.85A12,12,0,0,0,45,12.45a13.47,13.47,0,0,0-18.51,0,12,12,0,0,0-4.24,9.89,15.72,15.72,0,0,0,1.06,5.85c1.36,2.6,4.79,5.86,7.19,6.81a18.09,18.09,0,0,0,10.26,0Zm97.06,8.65a20.34,20.34,0,0,1-13.45-10.95c-2.17-4.24-2.5-5.64-2.5-10.4s.33-6.16,2.5-10.4c3.11-6.07,7.38-9.35,14.42-11.09,4.59-1.13,5.33-1.13,9.92,0,7,1.74,11.31,5,14.42,11.09,2.16,4.23,2.5,5.65,2.5,10.35s-.37,6.2-2.4,10.32A21.64,21.64,0,0,1,137.81,43.69ZM148.75,35a16.75,16.75,0,0,0,7.43-6.85,15.72,15.72,0,0,0,1.06-5.85A12,12,0,0,0,153,12.45a13.47,13.47,0,0,0-18.51,0,12,12,0,0,0-4.24,9.89,15.72,15.72,0,0,0,1.06,5.85c1.36,2.6,4.79,5.86,7.19,6.81a18.09,18.09,0,0,0,10.26,0Z"/></g></g></svg>